<svg version="1.1" id="Layer_1" xmlns="http://www.w3.org/2000/svg" xmlns:xlink="http://www.w3.org/1999/xlink" x="0px" y="0px"
	 width="100%" viewBox="0 0 176 50" enable-background="new 0 0 176 50" xml:space="preserve">
<path fill="#FFFFFF" opacity="1.000000" stroke="none" 
	d="
M93.000000,51.000000 
	C62.390770,51.000000 31.781538,51.000000 1.086153,51.000000 
	C1.086153,34.422333 1.086153,17.844152 1.086153,1.000000 
	C31.353710,1.000000 61.708195,1.000000 92.492020,1.260054 
	C92.989304,1.681742 93.057266,1.843376 93.049400,2.467964 
	C93.016212,18.618483 93.058846,34.306049 93.002434,50.237782 
	C92.935585,50.654633 92.967796,50.827316 93.000000,51.000000 
z"/>
<path fill="#FF6600" opacity="1.000000" stroke="none" 
	d="
M93.101486,49.993614 
	C93.058846,34.306049 93.016212,18.618483 93.252411,2.357589 
	C93.767799,1.570849 93.924057,1.309430 94.000000,1.000000 
	C121.610527,1.000000 149.221054,1.000000 176.915787,1.000000 
	C176.915787,17.576372 176.915787,34.153236 176.915787,51.000000 
	C149.646362,51.000000 122.291840,51.000000 94.376495,50.785301 
	C93.649338,50.289486 93.411278,50.097160 93.101486,49.993614 
z"/>
<path fill="#FF7C25" opacity="1.000000" stroke="none" 
	d="
M93.750000,1.000000 
	C93.924057,1.309430 93.767799,1.570849 93.328232,1.894635 
	C93.057266,1.843376 92.989304,1.681742 92.960678,1.260054 
	C93.000000,1.000000 93.500000,1.000000 93.750000,1.000000 
z"/>
<path fill="#FF7C25" opacity="1.000000" stroke="none" 
	d="
M93.002434,50.237782 
	C93.411278,50.097160 93.649338,50.289486 93.907837,50.785301 
	C94.000000,51.000000 93.500000,51.000000 93.250000,51.000000 
	C92.967796,50.827316 92.935585,50.654633 93.002434,50.237782 
z"/>
</svg>